<?xml version="1.0" encoding="UTF-8"?>
<svg xmlns="http://www.w3.org/2000/svg" version="1.1" viewBox="0 0 595.3 841.9">
  <defs>
    <style>
      .cls-1 {
        fill: #7aacdd;
      }

      .cls-2 {
        fill: #5c637e;
      }

      .cls-3 {
        fill: #f1f1f2;
      }

      .cls-4 {
        fill: #090b0e;
      }

      .cls-5 {
        fill: #a7c8eb;
      }

      .cls-6 {
        fill: #5d6580;
      }

      .cls-7 {
        fill: #e8ebed;
      }

      .cls-8 {
        fill: #22bd5c;
      }

      .cls-9 {
        display: none;
      }

      .cls-10 {
        fill: #fefefe;
      }

      .cls-11 {
        fill: #aab5cc;
      }

      .cls-12 {
        fill: #fdfefe;
      }

      .cls-13 {
        fill: #a7b1c8;
      }
    </style>
  </defs>
  <!-- Generator: Adobe Illustrator 28.6.0, SVG Export Plug-In . SVG Version: 1.2.0 Build 709)  -->
  <g>
    <g id="Capa_1">
      <g id="Capa_1-2" data-name="Capa_1">
        <g>
          <path class="cls-8" d="M-2739.1-1069.8c141.9-1,295.4,105,295.3,292.2,0,161.2-133.9,294.5-296.4,293.3-155.9-1.1-294.9-121.1-295.4-299.1-.3-162.5,143.6-288.2,296.5-286.3v-.2ZM-2568.2-839.1c0-3-1.3-5.7-3.4-7.8-9.1-9.7-18.2-19.3-27.3-29-5.1-5.4-9.9-4.6-15.2,0-34,31-67.8,62.1-99.8,95.1-14.5,14.8-30.3,28.2-45.6,42.1-7.7,7-10.7,6.5-18.4-.3-6.2-5.7-12.6-11.3-18.8-17.1-16.8-15.8-33-32.2-48.4-49.6-4.5-5.1-8.5-5.6-14.2-1.1-10.5,8.3-19.5,17.9-28.1,28.1-4.1,4.9-4.5,8.5,0,13.6,34,40.1,70.4,78,107.4,115.4,4.9,4.9,8.8,4.3,13.6,0,12.8-12,25.7-23.8,38.6-35.8,51.6-47.9,103.1-95.9,154.7-143.8,2.9-2.6,4.9-5.4,4.9-9.6l-.2-.2Z"/>
          <path class="cls-10" d="M-2568.2-839.1c0,4-2.2,6.9-4.9,9.6-51.6,47.9-103.1,95.9-154.7,143.8-12.8,12-25.9,23.6-38.6,35.8-4.8,4.5-8.6,5.1-13.6,0-37-37.3-73.4-75.3-107.4-115.4-4.3-5.1-4.1-8.6,0-13.6,8.6-10.2,17.6-19.8,28.1-28.1,5.7-4.5,9.7-4,14.2,1.1,15.3,17.4,31.6,33.8,48.4,49.6,6.2,5.9,12.6,11.5,18.8,17.1,7.7,7,10.7,7.3,18.4.3,15.3-13.9,31.1-27.3,45.6-42.1,32.1-33,65.8-64.2,99.8-95.1,5.3-4.8,10.1-5.6,15.2,0,9.1,9.7,18.2,19.3,27.3,29,2.1,2.2,3.4,4.8,3.4,7.8l.2.2Z"/>
        </g>
        <g class="cls-9">
          <path class="cls-7" d="M-2436-473.5c.5-2.4,1.9-3.8,4.3-4.3.8,3.7-.6,5.1-4.3,4.3Z"/>
          <path class="cls-1" d="M-2957.1-574c-13.9-14.4-26-30.2-36.7-47.2-20.9-33.7-34.6-70.1-41.2-109.3-2.4-14.8-3.7-29.7-3.8-44.7-.2-11.8,1-23.8,1.4-35.8,0-.6.6-1.3.8-1.9,6.7-1.1,12.8-3,15.5-10.4,1.3-3.5,3.4-6.7,4.9-10.2,4.5-10.4,11-19.2,19.2-27,9.6-9.3,20.4-15.8,34-16.3,3.4,0,6.9.3,10.1-1.4,3.8-2.1,2.4-6.2,3.4-9.4,3-9.9,9.6-16.9,17.2-23.3,4.5-3.8,10.2-5.9,14-10.5,1.4.3,2.6-.5,3.7-1,9.7-3.8,19.2-8.8,29.5-10.7,8.1-1.6,11.3.3,13.4,8.5,2.1,8,3.8,16.1,6.7,23.9,1.9,4.9,5.4,7,10.5,6.4,4.5-.5,5.7-3.8,6.7-7.5,6.1-22.8,12.9-45.3,20.7-67.5.5-1.1.3-2.6,1.8-3.2,1.8,1.4,1.9,3.7,2.4,5.4,4,13.7,6.9,27.6,9.7,41.7,1.6,8.1,2.6,16.4,7,23.8,1.6,2.7,3.7,4.9,7.2,4.6s4.6-3,5.7-5.7c4.1-10.4,8.1-20.7,12.3-31.3,2.1-5.1,3.8-5.6,8.5-2.4,3.5,2.6,6.9,5.4,10.4,7.8,10.1,6.9,17.2,6.1,25.7-2.6,5.9-6.1,11.5-12.3,17.2-18.4,6.7-7.2,11.5-6.9,16.9,1.3,3.4,4.9,6.7,9.9,9.7,15,7.8,13.1,14,14.4,26.8,4.6,7-5.4,13.9-10.9,21.7-15,5.9-3,11.7-3.2,17.6.6,4.8,3,8.5,7,12.3,10.9,13.2,13.1,8,12.3,25.7,8.1.5,0,.8,0,1.3-.2,9.6-1.9,12.3-.5,15.3,9.1,2.2,7.3,5.1,14.2,10.2,20.1,4.3,4.9,6.9,4.6,9.4-1.6,3.2-7.8,6.7-15.5,10.1-23.3.6-1.3,1.1-2.9,2.9-3,1.9,0,2.4,1.8,3,3.2.8,2.4,1.9,4.6,2.6,7,5.3,17.6,9.3,35.4,13.7,53.1,1.4,6.1,3.8,11.7,7.3,16.6,2.6,3.5,4.5,3.5,6.9-.2,2.9-4.3,4.8-9.1,6.2-13.9,2.4-8,4.6-16,7-23.9,1-3,2.6-4.3,5.7-2.9,4.1,1.9,8.6,3.2,12.9,4.9,2.9,1.3,3,0,2.9-2.4-.2-3.5-2.9-6.1-3-9.6,1.6-.5,2.7-2.4,4.6-1.8,11,26.3,18.4,53.6,21.5,82,2.4,21.5,1.9,43.3-.3,65-2.7,24.9-8.3,49-17.2,72.3-8.3,21.9-18.7,42.6-32.2,61.6-8.5-6.1-17.4-5.4-27-3-9.4,2.4-19.2,3.5-28.9,3.7-36.9.6-73.6-.5-110.4.8-31.4,1.1-62.9-.6-94.3,0-29.4.6-58.7-.3-87.9.8-11.3.5-22.7.3-34-.6-11-.8-22-.3-33.2-.8-17.1-.5-34.2-1.6-51.2-1.3-4.1,0-7.3,1.1-9.3,4.9-1.9,3.8,0,7,2.4,10.1,4.8,6.7,10.2,12.9,14,20.3.5.8,1.4,1.6,0,2.6l.3.3ZM-2897.3-655.8c.8,3,1.3,6.2,2.2,9.3,4.9,15.2,15.6,23.9,31.1,25.7,15,1.6,27.8-3.4,36.1-17.1,4.1-6.9,5.9-14.7,7.7-22.5,4.3,5.3,10.1,5.9,16.3,5.7,53.8-.3,107.6-.5,161.5-.8h1.8c4.5-.5,8.9.3,13.2-.8,2.1-.6,3.2-1.6,2.9-3.5-1.1-6.1-.3-12.1-1-18.2-1.4-13.6-3.4-27-3.4-40.7v-25.4c0-1.4.5-2.9-.6-4.1,1-4.1-.2-8.3-.2-12.6v-104.9c0-5-2.4-7.5-7.3-7.5h-332.9c-5.3.3-6.5,1.6-6.5,7v43.3c0,6.1-1.3,7.3-7.3,7.3s-7.2-.2-10.9,0c-4,.3-5.3,2.6-5.1,7,0,3.8,2.2,5.1,5.6,4.9,10.1-.3,20.1-.8,30.2-1.1,13.4-.5,26.7-1.1,40.1-1.4,3.7,0,5.6,2.4,5.3,6.4-.5,5.7-3.2,8.3-9.4,8.5-7.3,0-14.8,0-21.9,2.1-15.8,4.3-31.8,6.2-48.2,5.3-4.5-.3-5.9,1.9-5.9,7.5s.8,6.4,5.7,6.4h50.1c2.1,0,4.3-.2,5.1,2.1,1,2.4.8,4.9-1,7-1.4,1.9-3.7,2.1-5.9,2.1h-22.8c-3.4,0-4.6,1-4.6,4.5v51.6c0,3.5,1.3,4.5,4.6,4.5,6.4,0,12.6-.5,19,.3,5.3,3.5,10.7,6.5,15.5,10.9-.5,8.5-1,16.8-1.6,25.2-.3,4.9,1.3,6.7,6.1,7.5,12.1,1.8,24.3,0,36.4-1.3h.2ZM-2528.1-659.9c12.6-.3,25.2-.6,38-1,2.1,0,4,0,6.1-.3,2.9-.3,4.3-1.6,4.3-4.8v-53.3c0-3.4-1.8-5.4-4.5-6.9-3.2-1.6-6.5-3-9.7-4.5-9.3-4-17.2-9.7-23-18.4-10.2-15.2-20.7-30.2-30.8-45.3-3.7-5.6-8.5-8.3-15.2-8.1-16.4.2-32.9,0-49.2,0s-8.6,1.3-8.6,8.6v130.7c0,2.9,1.3,4.5,4.1,5.1,3.8.8,7.7,1,11.7.5.3,1.3.5,2.6.8,3.8,2.4,15.8,10.2,27.5,25.7,31.8,15,4.3,28.7.5,40.1-10.7,7.5-7.5,9.7-17.2,10.7-27.3h-.5Z"/>
          <path class="cls-5" d="M-2469.1-892.4c-1.9-.5-3,1.3-4.6,1.8-4.6-2.1-8.5-5.9-13.7-7.2-9.3-2.2-11.2-1.1-13.4,8-1.6,6.5-3.5,12.9-5.3,19.3-.3,1.3-.6,2.2-2.1,2.4s-2.1-.8-2.6-1.9c-.3-.8-.6-1.6-.8-2.4-3.7-13.4-7.3-26.8-10.4-40.5-1.4-6.9-3.2-13.6-5.1-20.3-1.4-5.1-5.7-8.1-10.1-8.3-4.6,0-7.5,2.4-9.7,7.8-2.6,6.4-5.3,12.6-7.8,18.8-.5,1.3-1,2.9-2.7,3-1.9,0-2.2-1.6-2.9-2.7-1.8-3-3.4-6.1-5.3-8.9-3.7-5.7-8.8-9.1-16-8.3-3.4.3-6.9.8-10.2,1.4-5.7,1-10.7.2-14.8-4.6-4.5-5.1-9.6-9.6-15.5-13.2-9.3-5.7-18.2-6.4-27.5,0-7,4.8-14,9.6-21.2,14.4-5.3,3.5-8.1,3.2-12.4-1.6-5.6-6.1-9.4-13.2-14-20-5.6-8.1-12.3-9.9-20.9-5.3-4,2.1-7,5.4-10.2,8.6-4.3,4.5-8.1,9.4-12.4,13.9-5.6,5.7-9.9,6.1-16.4,1.4-5.7-4.1-11.3-8.5-17.1-12.6-5.9-4.1-9.3-3.4-13.1,2.9-3.7,6.1-6.4,12.8-8.6,19.5-.6,1.8-.8,4.5-2.9,4.5s-1.9-2.7-2.4-4.5c-3.7-18-7.5-36.1-10.5-54.3-.8-5.1-1.6-10.4-4.5-15-3-4.8-7.5-5.3-11.5-1.3-3.7,3.7-6.2,8.1-7.5,13.1-4,14-7.8,27.9-11.8,42-2.2,8.1-4.3,16.3-6.5,24.4-.3,1.4-.6,3.5-2.7,3.5s-1.8-2.1-2.2-3.4c-1.3-3.8-2.4-7.8-4-11.5-3.7-8.9-9.4-12.8-18.8-12-13.4,1-25.4,6.1-35.3,15.5-1.3,1.3-2.6,2.4-2.2,4.5-3.8,4.6-9.6,6.9-14,10.5-7.7,6.4-14.2,13.2-17.2,23.3-1,3.2.5,7.3-3.4,9.4-3.2,1.8-6.7,1.3-10.1,1.4-13.7.3-24.4,6.9-34,16.3-8.1,7.8-14.7,16.6-19.2,27-1.4,3.5-3.7,6.7-4.9,10.2-2.7,7.3-8.8,9.3-15.5,10.4.6-10.4,2.9-20.4,5.1-30.5,7.7-34,20.7-65.6,39.6-94.8,25.2-38.9,57.6-70.5,97.2-94.2,30-17.9,62.1-30.2,96.2-36.7,14.8-2.9,29.7-4.3,44.8-4.9,14-.6,28.1,0,42.1,1.3,19.6,1.8,38.8,6.1,57.6,12,33.5,10.4,64,26.5,91.9,47.7,25.4,19.3,46.9,42.3,64.8,68.8,11,16.3,20.1,33.5,27.9,51.6l.6.3Z"/>
          <path class="cls-5" d="M-2957.1-574c1.3-1,.3-1.6,0-2.6-4-7.3-9.3-13.6-14-20.3-2.2-3-4.1-6.1-2.4-10.1,1.9-3.8,5.1-4.8,9.3-4.9,17.1-.5,34.2.8,51.2,1.3,11,.3,22.2,0,33.2.8,11.3,1,22.7,1.1,34,.6,29.4-1.3,58.7-.3,87.9-.8,31.4-.6,62.9,1.1,94.3,0,36.9-1.3,73.6,0,110.4-.8,9.7-.2,19.5-1.4,28.9-3.7,9.6-2.4,18.5-3,27,3-5.7,9.3-12.4,17.7-19.5,26-18.2,21.4-38.9,39.9-62.4,55.2-34.6,22.5-72.1,37.7-112.8,44.5-14,2.2-28.1,3.5-42.3,4-26.7.8-53-2.2-78.8-8.3-18.7-4.3-36.5-11-53.9-19-25.5-11.8-48.8-27-70.2-45.5-6.2-5.4-12.1-11-18.2-16.6-.6-.6-1.1-1.8-1.6-2.6v-.5Z"/>
          <path class="cls-12" d="M-2953.4-697.9c-6.4-.8-12.6-.3-19-.3s-4.6-1-4.6-4.5v-51.6c0-3.5,1.3-4.6,4.6-4.5h22.8c2.2,0,4.5,0,5.9-2.1,1.6-2.1,1.8-4.6,1-7s-3.2-2.1-5.1-2.1h-50.1c-4.9,0-5.7-.8-5.7-6.4s1.4-7.8,5.9-7.5c16.4,1,32.4-1,48.2-5.3,7-1.9,14.5-1.9,21.9-2.1,6.2,0,8.9-2.7,9.4-8.5.3-4-1.6-6.4-5.3-6.4-13.4.5-26.7,1-40.1,1.4-10.1.3-20.1.8-30.2,1.1-3.4,0-5.4-1.1-5.6-4.9,0-4.5,1.3-6.7,5.1-7,3.5-.3,7.2,0,10.9,0,6.1,0,7.3-1.3,7.3-7.3v-43.3c0-5.4,1.1-6.7,6.5-7h332.9c4.9,0,7.3,2.5,7.3,7.5v104.9c0,4.1,1.3,8.3.2,12.6-1.1,14.7-1,29.4-1,44s-1.1,5.1-4.9,5.1c-34.3.2-68.5,0-102.8.5-67.2.6-134.5.2-201.7.3-4.6,0-9.3-.5-13.7.5l-.2-.3Z"/>
          <path class="cls-12" d="M-2605.2-657.5c-3.8.5-7.7.3-11.7-.5-3-.5-4.3-2.1-4.1-5.1v-130.7c0-7.3,1.1-8.6,8.6-8.6h49.2c6.7,0,11.5,2.6,15.2,8.1,10.2,15.2,20.6,30.2,30.8,45.3,5.7,8.6,13.7,14.4,23,18.4,3.4,1.4,6.5,2.9,9.7,4.5,2.7,1.4,4.5,3.5,4.5,6.9v53.3c0,3.2-1.4,4.6-4.3,4.8-2.1.2-4,.2-6.1.3-12.6.3-25.2.6-38,1,0-.8-.3-1.8-.3-2.6-1.9-15.2-10.9-24.6-24.3-30-13.9-5.6-26.8-3.5-38.3,6.1-8.9,7.5-12.6,17.7-14,29l.2-.2ZM-2563.4-739.2h28.1c1.8,0,3.8.3,4.9-1.8.8-1.8,0-3.4-1.1-4.8-7-10.5-14-20.9-20.9-31.6-1.6-2.4-3.5-3.2-6.1-3.2h-32.7c-3.8,0-5.6,1.4-5.4,5.4v30.6c0,3.8,1.4,5.6,5.4,5.4h28.1l-.3-.2Z"/>
          <path class="cls-12" d="M-2918.2-921.5c-.3-2.1,1-3.2,2.2-4.5,9.9-9.4,21.7-14.5,35.3-15.5,9.4-.6,15.2,3.2,18.8,12,1.6,3.7,2.7,7.7,4,11.5.5,1.3.5,3.4,2.2,3.4s2.2-2.1,2.7-3.5c2.2-8.1,4.3-16.3,6.5-24.4,3.8-14,7.8-27.9,11.8-42,1.4-4.9,3.8-9.4,7.5-13.1,4-4,8.5-3.5,11.5,1.3,2.9,4.6,3.5,9.7,4.5,15,3,18.2,6.7,36.2,10.5,54.3.3,1.8,0,4.5,2.4,4.5s2.2-2.7,2.9-4.5c2.2-6.9,4.8-13.4,8.6-19.5,3.8-6.2,7.2-7.2,13.1-2.9,5.7,4.1,11.3,8.5,17.1,12.6,6.5,4.6,10.9,4.3,16.4-1.4,4.3-4.5,8.1-9.4,12.4-13.9,3-3.2,6.2-6.5,10.2-8.6,8.6-4.6,15.3-2.9,20.9,5.3,4.6,6.7,8.5,13.9,14,20,4.3,4.8,7,5.1,12.4,1.6,7.2-4.6,14.2-9.4,21.2-14.4,9.3-6.4,18.2-5.7,27.5,0,5.7,3.7,11,8,15.5,13.2,4.1,4.8,9.1,5.6,14.8,4.6,3.4-.6,6.9-1.1,10.2-1.4,7-.8,12.1,2.6,16,8.3,1.9,2.9,3.5,5.9,5.3,8.9.6,1.3,1.1,2.9,2.9,2.7,1.8,0,2.2-1.8,2.7-3,2.7-6.2,5.3-12.6,7.8-18.8,2.2-5.4,5.1-7.8,9.7-7.8s8.5,3.2,10.1,8.3c1.9,6.7,3.7,13.4,5.1,20.3,3,13.6,6.7,27.1,10.4,40.5.2.8.5,1.6.8,2.4.5,1.1,1.1,2.1,2.6,1.9,1.4,0,1.8-1.3,2.1-2.4,1.8-6.4,3.5-12.9,5.3-19.3,2.4-9.1,4.3-10.2,13.4-8,5.1,1.3,8.9,5.1,13.7,7.2.2,3.5,2.7,6.1,3,9.6,0,2.4,0,3.7-2.9,2.4-4.3-1.8-8.6-3.2-12.9-4.9-3.4-1.4-4.9-.2-5.7,2.9-2.4,8-4.6,16-7,23.9-1.4,4.9-3.4,9.6-6.2,13.9-2.4,3.7-4.3,3.8-6.9.2-3.5-4.9-5.9-10.7-7.3-16.6-4.5-17.7-8.5-35.6-13.7-53.1-.6-2.4-1.8-4.6-2.6-7-.5-1.6-1-3.4-3-3.2-1.6,0-2.2,1.6-2.9,3-3.4,7.7-6.7,15.5-10.1,23.3-2.6,6.2-5.1,6.5-9.4,1.6-5.1-5.9-7.8-12.8-10.2-20.1-3-9.6-5.7-11-15.3-9.1-.5,0-.8,0-1.3.2-17.7,4.1-12.4,4.9-25.7-8.1-3.8-3.8-7.5-8-12.3-10.9-5.9-3.7-11.7-3.7-17.6-.6-7.8,4.1-14.7,9.6-21.7,15-12.8,9.7-19,8.6-26.8-4.6-3-5.1-6.5-10.1-9.7-15-5.4-8.1-10.2-8.5-16.9-1.3-5.7,6.1-11.3,12.3-17.2,18.4-8.6,8.8-15.6,9.4-25.7,2.6-3.5-2.4-6.9-5.3-10.4-7.8-4.6-3.2-6.4-2.7-8.5,2.4-4.1,10.4-8.1,20.7-12.3,31.3-1.1,2.7-2.2,5.6-5.7,5.7-3.5.3-5.6-1.9-7.2-4.6-4.3-7.3-5.3-15.6-7-23.8-2.9-14-5.7-27.9-9.7-41.7-.5-1.9-.8-4-2.4-5.4-1.4.6-1.4,2.1-1.8,3.2-7.8,22.2-14.5,44.8-20.7,67.5-1,3.7-2.2,7-6.7,7.5-5.1.5-8.6-1.6-10.5-6.4-3-7.8-4.6-16-6.7-23.9-2.1-8.1-5.4-10.1-13.4-8.5-10.4,2.1-19.8,6.9-29.5,10.7-1.1.5-2.4,1.3-3.7,1l-.8-.2Z"/>
          <path class="cls-7" d="M-2640.6-655.4h-1.8c-53.8.2-107.6.3-161.5.8-6.4,0-12-.6-16.3-5.7,1-7.2-.6-13.6-5.6-18.8-1.8-1.9-3.7-3.7-5.6-5.4,0-4.8,3.4-4.1,6.4-3.8,5.4.5,10.9,1.4,16.3,1.4,53.6.2,107.3.2,161,.3,1.8,0,3.5.2,5.1.5,2.4.3,3.2,1.3,3,4.1-.6,8.9-.8,18-1.1,27v-.3Z"/>
          <path class="cls-11" d="M-2640.6-655.4c.3-8.9.5-18,1.1-27,.2-2.7-.6-3.8-3-4.1-1.8-.3-3.4-.5-5.1-.5-53.6,0-107.3,0-161-.3-5.4,0-10.9-1-16.3-1.4-3-.3-6.2-.8-6.4,3.8-1.4-.8-3-1.6-4.5-2.4-9.4-5.3-19.2-8.5-30-6.7-6.1,1-11,4.5-16.4,6.9h-55.9c-4.8-4.3-10.2-7.3-15.5-10.9,4.6-1,9.3-.5,13.7-.5,67.2,0,134.5.3,201.7-.3,34.3-.3,68.5-.2,102.8-.5,3.8,0,4.9-1.4,4.9-5.1,0-14.7-.2-29.4,1-44,1,1.3.6,2.9.6,4.1v25.4c0,13.7,1.8,27.1,3.4,40.7.6,6.1-.2,12.1,1,18.2.3,2.1-.8,3-2.9,3.5-4.5,1.3-8.9.5-13.2.8v.3Z"/>
          <path class="cls-4" d="M-2605.2-657.5c1.4-11.3,5.3-21.5,14-29,11.5-9.6,24.4-11.7,38.3-6.1,13.4,5.4,22.5,14.8,24.3,30,0,.8.3,1.8.3,2.6-1,10.2-3.2,19.8-10.7,27.3-11.3,11.2-25.1,15-40.1,10.7-15.5-4.3-23.3-16-25.7-31.8-.2-1.3-.5-2.6-.8-3.8l.3.2ZM-2567.1-676.3c-10.5,0-19,8.6-19,19.2s8.9,20,20,19.8c10.7,0,19-8.6,19-19.2s-8.9-19.8-20-19.8Z"/>
          <path class="cls-4" d="M-2882.1-686.9c5.4-2.4,10.4-5.9,16.4-6.9,10.9-1.8,20.7,1.3,30,6.7,1.4.8,3,1.6,4.5,2.4,1.9,1.8,3.8,3.5,5.6,5.4,4.9,5.3,6.5,11.7,5.6,18.8-1.8,7.8-3.5,15.6-7.7,22.5-8.3,13.7-21.1,18.7-36.1,17.1-15.5-1.6-26.2-10.4-31.1-25.7-1-3-1.6-6.2-2.2-9.3,0-.5.3-.8.3-1.3-.5-11.8,4.1-21.2,13.4-28.2.5-.5.8-1.1,1.3-1.6h0ZM-2840.3-656.9c0-10.7-8.6-19.5-19.3-19.5s-19.3,8.9-19.2,20c0,10.9,8.8,19.3,19.5,19.2,10.7-.2,19.2-8.9,19-19.6h0Z"/>
          <path class="cls-12" d="M-2882.1-686.9c-.5.6-.8,1.3-1.3,1.6-9.4,7-13.9,16.4-13.4,28.2,0,.5-.2.8-.3,1.3-12.1,1.3-24.1,3-36.4,1.3-4.8-.6-6.4-2.6-6.1-7.5.6-8.3,1.1-16.8,1.6-25.2h55.9v.3Z"/>
          <path class="cls-1" d="M-2563.4-739.2h-28.1c-3.8,0-5.4-1.6-5.4-5.4v-30.6c0-4,1.6-5.4,5.4-5.4h32.7c2.7,0,4.6.8,6.1,3.2,6.9,10.5,13.9,21.1,20.9,31.6,1,1.4,1.9,3,1.1,4.8-1,2.2-3,1.8-4.9,1.8h-28.1l.3.2Z"/>
          <path class="cls-12" d="M-2567.1-676.3c11,0,20,8.8,20,19.8s-8.5,19-19,19.2c-10.9,0-20-8.8-20-19.8s8.5-19.2,19-19.2Z"/>
          <path class="cls-12" d="M-2840.3-656.9c0,10.7-8.5,19.5-19,19.6-10.7.2-19.3-8.3-19.5-19.2,0-11,8.5-20,19.2-20s19.2,8.6,19.3,19.5h0Z"/>
        </g>
        <g class="cls-9">
          <path class="cls-5" d="M-2611.7-931.9c8.1,1,15.8,3.8,23.8,5.7,21.4,5.3,42.6,10.7,64,16,7.2,1.8,7.3,1.9,7.3,9.4v251.5c0,7.2.2,7.3,7.2,9.3,4.8,1.3,9.4,2.7,14.2,4,1.3.3,3,.2,3,1.8s-1.9,1.6-3,1.9c-23.9,7.3-47.6,15.3-71.3,23.3-37,12.4-73.6,26.7-110.8,38.9-17.2,5.7-34.5,11.2-51.7,16.9-5.4,1.8-10.5.2-15.5-1.4-31.8-10.2-63.7-20.6-95.4-31-41.8-13.6-83.5-27.3-125.3-40.9-6.1-1.9-12.6-3-18.8-4.6-1.1-.3-2.6-.2-2.4-1.9,0-1.4,1.4-1.3,2.4-1.4,6.9-1.3,13.7-2.7,20.6-3.8,3.7-.6,5.1-1.9,5.1-6.1v-262.5c0-6.7,0-6.9,6.5-7.5,10.1-1,20.1-1.6,30.2-2.2,13.4-1,26.8-2.1,40.2-3,2.6-.2,3.4-1.3,3.4-3.7,0-5.6-.2-11.2-.8-16.6-.3-3.4-2.7-4.5-5.6-3.7-3.7,1.1-4.6-1.1-5.3-3.8-.3-1.6,0-3.4,0-5.1s1.3-3.7,3.5-3.8c3.8-.3,7.8-.5,11.7-.8,7.2-.3,14.2-.6,21.4-.8,4,0,5.4,1.4,5.6,5.3q.3,11-10.7,11c-6.9,0-8.3,1.4-8.8,8.3,0,2.4-.6,4.9-.8,7.3-.3,4.3.8,5.4,5.1,5.3,7.3-.5,14.7-1,22-1.6,8.3-.6,16.8-1.4,25.1-2.2,15.5-1.3,31-2.6,46.4-3.8,5.1-.3,10.1-.6,15.2-1-.2,5.9,1.8,11.7,1.8,17.7-.2,37.8,0,75.8-.2,113.6-.2,35.8.6,71.5-.6,107.3-.6,20.3,0,40.7-.2,61.1,0,2.6.6,4.9,3,5.3,2.9.3,6.2,2.1,8.8-1.3,2.1.3,4,.3,6.1-.3,5.4-1.4,10.7-2.4,16.4-1.8,2.9.3,3.7-1,2.6-3.4-1.8-3.5-1.9-7.2-1.8-10.9h4.9c6.1,1,12,1.9,18,3,18,3,36.2,6.2,54.3,9.3,7,3.5,14.7,4.8,22.5,5.1,5.9.3,6.4.2,6.4-5.3.5-100.9-.8-201.6.8-302.4l-.5.3ZM-2923.3-688.8v54.1c0,4.3.8,5.1,5.1,4.1,19.6-3.7,39.6-5.3,59.5-4.5,3.7,0,4.9-1,4.9-4.8v-102.3c0-4.9-.2-5.1-5.4-5.1h-58.7q-5.3,0-5.3,5.6v53l-.2-.2ZM-2786.2-665.5v-35.1c0-4.9-.3-5.3-5.3-5.3-11.3-.2-22.8-.5-34.2-1.4-2.9-.3-4.3,1.1-4.3,4v70.1c0,2.2,1,3.4,3,3.7,3.4.3,6.7.5,10.1.8,8.6.8,17.2,1.6,25.9,2.7,4.1.5,4.8.3,4.8-4v-35.4ZM-2843.8-853v15.5c0,2.9,1.1,3.8,4,3.8,16.1-.6,32.4-1.3,48.5-1.8,2.9,0,4.1-1.3,4.1-4.3v-30.3c0-3.4-1.3-4.3-4.3-4.1-16.1.6-32.1,1.3-48.2,1.8-3,0-4.1,1.3-4,4.3v15.2h-.2ZM-2869.7-853c0-4.8-.2-9.6,0-14.4.3-3.8-1.3-4.6-4.8-4.5-15.8.6-31.6,1.3-47.4,1.8-3,0-4,1.3-4,4.3v29.5c0,3.2,1,4.3,4.1,4.1,16.1-.6,32.1-1.3,48.2-1.8,3,0,3.8-1.3,3.7-4v-15.2h.2ZM-2787.1-779v-12.1c0-2.2-1-3.5-3.2-3.5h-16.8c-2.1,0-3,1.3-3,3.2v24.1c0,2.4,1.1,3.5,3.7,3.4h16c2.6,0,3.5-1.1,3.4-3.5v-11.7.2ZM-2835.8-779.1v11.7c0,2.4,1,3.7,3.4,3.7h15.6c2.1,0,3.2-1,3.2-3v-23.8c0-2.4-1.1-3.4-3.7-3.4h-14.8c-3,0-3.8,1.3-3.7,4v10.9h0ZM-2586.7-890.8c2.4.6,3.4-.8,3.5-3.4,0-1.4,0-2.9.3-4.3.6-2.9,0-4.3-3.2-3.2-1.6.5-2.9-.8-4.3-1.4-1.4-.6-2.9-.6-3.5,1-2.4,5.1,1.3,11,7.3,11.2l-.2.2Z"/>
          <path class="cls-13" d="M-2741.8-625c-2.4,3.4-5.9,1.6-8.8,1.3-2.4-.3-3-2.7-3-5.3,0-20.4-.5-40.7.2-61.1,1.3-35.8.3-71.5.6-107.3.2-37.8,0-75.8.2-113.6,0-6.1-1.9-11.8-1.8-17.7,4.1,1.6,8.5.5,12.8,1.1,6.7,1,13.4,1.3,20.1,1.9,2.9.3,4.1-.8,3.8-3.7-.5-7-1-13.9-1.6-20.9-.3-2.7-1.9-3.8-4.6-3-3,1-6.2,1.8-9.4,2.6-5.1,1.3-7.5.2-9.6-4.9-2.2-5.6-4-11.2-6.1-16.9-.8-2.1-1.4-4.1-2.6-6.1-1.3-2.4,0-3.4,2.1-3.7,15.8-2.4,31.6-4,47.6-3.2,6.5.3,12.6,2.7,18.7,5.3,2.4,1.1,3.4,3,2.7,5.4-1.8,6.7-3.5,13.2-5.6,19.8-1.3,4-3.8,4.8-8,3.8-2.6-.6-4.9-1.4-7.5-2.1-2.9-.6-5.1,0-5.4,3.2-1,7-.8,13.9-.3,20.9.2,3,1.9,3.5,4.5,3.4,9.3-.8,18.5-1.4,27.9-2.1,8.1-.6,16.3-1.1,24.4-1.6,2.7-.2,4.3-1.8,4.3-4.5v-14.4c0-2.7-1.6-4-4.5-3.4-2.6.5-5.1,1-7.7,1.4-3.7.8-6.2-.6-7.2-4-2.2-7.7-4.1-15.5-6.2-23.3-.6-2.6.2-3.8,3-4.1,10.5-1.1,21.1-2.6,31.6-3.7,7-.8,13.9.5,20.7,2.4,4.1,1.1,8.1,2.7,12.1,4,2.2.6,3,1.9,2.1,4-3.5,7.8-6.9,15.6-10.4,23.5-.8,1.9-2.2,2.7-4.3,2.6-4.3-.5-8.5-.8-12.8-1.3-4.6-.6-6.1.6-6.4,5.3-.3,3.7-.5,7.2-1,10.9-.3,2.6.8,3.5,3.4,3.4,7.2-.3,14.5-.6,21.7-.8-1.8,100.9-.3,201.6-.8,302.4,0,5.6-.5,5.6-6.4,5.3-7.8-.5-15.3-1.6-22.5-5.1,3.4-1,3.2-3.5,3.2-6.2v-166.6c0-55.5,0-9.7-9.7-9.1h-.8c-19.3.8-38.6,1.8-57.9,2.2-4,0-4.9,1.3-4.9,5.1v140.9c0,2.6-.3,5.3-.5,7.8,0,4.6-2.4,9.1-1.8,13.7h-4.9c-2.7-1.9-2.9-5.1-3.8-7.8-1-2.7,1.6-6.7-1.8-8.1-2.6-1.1-5.9-.3-8.8-.3s-6.1,2.1-6.5,5.6c-1.1,8.9-2.7,17.9-2.4,27l.5-.2Z"/>
          <path class="cls-2" d="M-2713.6-641.4c-.6-4.8,1.6-9.1,1.8-13.7,0-2.6.5-5.1.5-7.8v-140.9c0-3.8,1-4.9,4.9-5.1,19.3-.5,38.6-1.4,57.9-2.2h.8q9.7-.5,9.7,9.1v166.6c0,2.7.2,5.3-3.2,6.2-18-3-36.2-6.2-54.3-9.3-6.1-1-12-1.9-18-3l-.2.2Z"/>
          <path class="cls-2" d="M-2923.3-688.8v-53c0-5.4,0-5.6,5.3-5.6h58.7c5.1,0,5.4.2,5.4,5.1v102.3c0,3.8-1.3,4.9-4.9,4.8-20-.6-39.9.8-59.5,4.5-4.3.8-5.1.2-5.1-4.1v-54.1l.2.2Z"/>
          <path class="cls-3" d="M-2786.2-665.5v35.4c0,4.3-.6,4.5-4.8,4-8.6-1.1-17.2-1.9-25.9-2.7-3.4-.3-6.7-.5-10.1-.8-2.1-.2-3-1.3-3-3.7v-70.1c0-3,1.4-4.3,4.3-4,11.3,1,22.7,1.3,34.2,1.4,4.9,0,5.3.3,5.3,5.3v35.1ZM-2824.3-670.1c-2.4,0-3.4,1-3,2.9.3,2.2,1.6,3.8,3.8,4,1.8,0,2.9-1.3,2.9-3-.2-2.2-1.8-3.5-3.7-3.8Z"/>
          <path class="cls-6" d="M-2843.8-853v-15.2c0-3,1-4.1,4-4.3,16.1-.5,32.1-1.1,48.2-1.8,3.2,0,4.5.8,4.3,4.1-.2,10.1,0,20.3,0,30.3s-1.1,4.3-4.1,4.3c-16.1.5-32.4,1.1-48.5,1.8-2.9,0-4-.8-4-3.8v-15.5h.2ZM-2817.3-854h0v13.9c0,1.1-.6,3,1.4,2.9,1.4,0,1.4-1.6,1.4-2.7v-28.2c0-1.1,0-2.7-1.4-2.6-1.6,0-1.3,1.6-1.4,2.7v14Z"/>
          <path class="cls-6" d="M-2869.7-853v15.2c0,2.7-.8,4-3.7,4-16.1.5-32.1,1.1-48.2,1.8-3.4,0-4.3-1-4.1-4.1.2-9.9,0-19.8,0-29.5s1-4.1,4-4.3c15.8-.5,31.6-1.1,47.4-1.8,3.5,0,4.9.6,4.8,4.5-.3,4.8,0,9.6,0,14.4h-.2ZM-2898.4-852.7h0v-13.2c0-1,0-1.9-1.3-1.9s-1,1.1-1,1.8v26c0,1,0,2.1,1.1,2.1s1.1-1.4,1.1-2.4v-12.4.2Z"/>
          <path class="cls-6" d="M-2787.1-779v11.7c0,2.4-.8,3.5-3.4,3.5h-16c-2.6,0-3.7-1-3.7-3.4v-24.1c0-2.1.8-3.2,3-3.2h16.8c2.2,0,3.2,1.3,3.2,3.5v12.1-.2Z"/>
          <path class="cls-6" d="M-2835.8-779.1v-10.9c0-2.7.8-4.1,3.7-4,4.9.2,9.9,0,14.8,0s3.7,1,3.7,3.4v23.8c0,2.1-1.1,3-3.2,3h-15.6c-2.6,0-3.5-1.3-3.4-3.7v-11.7h0Z"/>
          <path class="cls-6" d="M-2741.8-625c-.3-9.1,1.3-18,2.4-27,.5-3.4,2.9-5.4,6.5-5.6,3,0,6.4-.8,8.8.3,3.4,1.4.8,5.4,1.8,8.1,1,2.9,1.1,5.9,3.8,7.8,0,3.7,0,7.3,1.8,10.9,1.3,2.4.3,3.8-2.6,3.4-5.6-.6-11,.3-16.4,1.8-2.1.6-4,.6-6.1.3h0Z"/>
          <path class="cls-6" d="M-2586.7-890.8c-6.1-.2-9.7-6.2-7.3-11.2.8-1.6,2.1-1.8,3.5-1,1.4.6,2.7,1.9,4.3,1.4,3.4-1.1,3.8.3,3.2,3.2-.3,1.4-.3,2.9-.3,4.3,0,2.6-1.1,4-3.5,3.4l.2-.2Z"/>
          <path class="cls-13" d="M-2824.3-670.1c1.9.3,3.5,1.6,3.7,3.8,0,1.8-1,3-2.9,3s-3.7-1.6-3.8-4c-.2-1.9.8-2.9,3-2.9Z"/>
          <path class="cls-13" d="M-2817.3-854v-13.9c0-1.1-.2-2.7,1.4-2.7s1.4,1.4,1.4,2.6v28.2c0,1.1,0,2.7-1.4,2.7-2.1,0-1.4-1.8-1.4-2.9v-13.9h0v-.2Z"/>
          <path class="cls-13" d="M-2898.4-852.7v12.4c0,1,.3,2.4-1.1,2.4s-1.1-1.3-1.1-2.1v-26c0-.8,0-1.8,1-1.8s1.3,1,1.3,1.9v13.2h0v-.2Z"/>
        </g>
      </g>
    </g>
  </g>
</svg>