<?xml version="1.0" encoding="UTF-8"?>
<svg id="Capa_1" xmlns="http://www.w3.org/2000/svg" viewBox="0 0 380.5 376.406">
  <defs>
    <style>
      .cls-1 {
        fill: #a7c8eb;
      }

      .cls-2 {
        fill: #f1f1f2;
      }

      .cls-3 {
        fill: #5c637e;
      }

      .cls-4 {
        fill: #a7b1c8;
      }

      .cls-5 {
        fill: #5d6580;
      }
    </style>
  </defs>
  <path class="cls-1" d="M267.628,89.124c5.095.609,9.915,2.378,14.866,3.585,13.393,3.264,26.745,6.697,40.117,10.047,4.455,1.116,4.578,1.242,4.578,5.892,0,52.543-.001,105.087-.002,157.63,0,4.5.107,4.622,4.461,5.799,2.974.804,5.935,1.657,8.909,2.465.76.206,1.882.143,1.94,1.073.065,1.039-1.156.986-1.86,1.201-14.989,4.571-29.819,9.625-44.668,14.619-23.238,7.816-46.102,16.7-69.389,24.376-10.792,3.557-21.624,6.994-32.417,10.552-3.42,1.127-6.572.132-9.738-.891-19.929-6.441-39.858-12.881-59.77-19.372-26.165-8.53-52.302-17.146-78.484-25.622-3.84-1.243-7.863-1.923-11.804-2.855-.693-.164-1.581-.104-1.484-1.186.081-.907.863-.79,1.484-.905,4.298-.794,8.579-1.697,12.897-2.358,2.329-.356,3.224-1.23,3.22-3.768-.078-54.821-.06-109.641-.059-164.462,0-4.16-.009-4.276,4.118-4.65,6.292-.571,12.6-.963,18.901-1.433,8.401-.626,16.8-1.284,25.205-1.855,1.593-.108,2.063-.793,2.07-2.299.015-3.496-.143-6.978-.533-10.449-.237-2.113-1.651-2.832-3.47-2.326-2.343.652-2.94-.735-3.27-2.444-.198-1.022-.088-2.108-.085-3.164.005-1.468.767-2.259,2.226-2.356,2.426-.161,4.851-.346,7.279-.452,4.459-.195,8.919-.385,13.38-.49,2.484-.058,3.386.887,3.467,3.315.23,6.874.204,6.9-6.707,6.914-4.307.008-5.249.932-5.491,5.242-.086,1.534-.358,3.057-.456,4.59-.173,2.706.462,3.446,3.159,3.294,4.611-.259,9.214-.649,13.818-1.025,5.245-.429,10.486-.92,15.731-1.354,9.686-.801,19.372-1.598,29.061-2.357,3.151-.247,6.311-.371,9.467-.551-.142,3.74,1.08,7.318,1.058,11.093-.14,23.732.027,47.467-.122,71.199-.14,22.414.413,44.828-.354,67.246-.436,12.746-.067,25.519-.115,38.279-.006,1.565.434,3.074,1.894,3.252,1.787.218,3.932,1.289,5.47-.788,1.285.199,2.544.209,3.827-.151,3.351-.94,6.746-1.543,10.255-1.095,1.762.225,2.307-.646,1.552-2.142-1.102-2.182-1.151-4.474-1.066-6.812,1.027-.031,2.053-.062,3.08-.093,3.755.623,7.511,1.235,11.264,1.871,11.339,1.922,22.676,3.853,34.013,5.781,4.44,2.192,9.185,2.958,14.085,3.229,3.701.205,3.963.127,3.978-3.343.27-63.164-.537-126.332.513-189.494ZM72.367,241.39c0,11.301-.005,22.603.004,33.904.002,2.744.45,3.155,3.171,2.64,12.339-2.337,24.786-3.274,37.327-2.837,2.293.08,3.099-.556,3.089-2.972-.085-21.383-.047-42.766-.052-64.149,0-3.124-.114-3.228-3.363-3.229-12.277-.004-24.554-.004-36.832,0-3.317.001-3.343.029-3.344,3.471-.003,11.057-.001,22.115-.001,33.172ZM158.313,255.97c0-7.318.003-14.635-.002-21.953-.002-3.123-.182-3.287-3.303-3.338-7.133-.116-14.261-.34-21.372-.933-1.845-.154-2.707.652-2.705,2.531.018,14.635.024,29.271-.011,43.906-.003,1.428.579,2.138,1.928,2.268,2.094.201,4.195.335,6.288.545,5.39.542,10.787,1.039,16.163,1.699,2.623.322,3.003.161,3.008-2.528.015-7.399.005-14.798.005-22.197ZM122.249,138.514c0,3.25.067,6.501-.026,9.748-.053,1.834.698,2.433,2.462,2.362,10.139-.41,20.28-.773,30.422-1.122,1.817-.063,2.579-.828,2.556-2.714-.075-6.336-.093-12.674.008-19.01.034-2.092-.773-2.668-2.743-2.584-10.06.429-20.122.795-30.186,1.117-1.89.06-2.574.847-2.52,2.698.092,3.166.025,6.336.027,9.505ZM105.974,138.527c0-3.007-.146-6.022.046-9.017.152-2.378-.819-2.902-2.981-2.804-9.898.449-19.8.816-29.703,1.126-1.92.06-2.498.816-2.471,2.673.088,6.174.098,12.352-.004,18.525-.033,2,.556,2.709,2.627,2.617,10.059-.446,20.122-.808,30.186-1.1,1.857-.054,2.377-.789,2.327-2.514-.092-3.166-.026-6.337-.026-9.506ZM157.661,184.913c0-2.522-.013-5.043.005-7.565.01-1.375-.564-2.175-2.005-2.177-3.498-.006-6.996-.008-10.493.003-1.336.004-1.862.769-1.86,2.035.008,5.043.01,10.086,0,15.13-.003,1.536.697,2.154,2.258,2.119,3.333-.075,6.67-.067,10.004-.006,1.613.029,2.151-.689,2.11-2.218-.066-2.438-.018-4.88-.018-7.32ZM127.163,184.783c0,2.44.016,4.879-.006,7.319-.014,1.475.572,2.305,2.148,2.295,3.253-.02,6.506-.005,9.759-.009,1.288-.001,1.974-.643,1.975-1.941.007-4.961,0-9.921.003-14.882.001-1.536-.733-2.148-2.28-2.112-3.089.072-6.182.095-9.269-.006-1.882-.062-2.409.797-2.35,2.505.079,2.274.019,4.553.019,6.83ZM283.318,114.853c1.466.373,2.14-.462,2.191-2.083.028-.886.034-1.791.219-2.651.39-1.806.094-2.706-2.034-2.041-.997.312-1.832-.471-2.695-.878-.949-.448-1.762-.369-2.245.63-1.532,3.166.776,6.903,4.565,7.023Z"/>
  <path class="cls-4" d="M186.127,281.372c-1.538,2.077-3.683,1.006-5.47.788-1.46-.178-1.9-1.687-1.894-3.252.048-12.761-.321-25.533.115-38.279.766-22.418.213-44.831.354-67.246.149-23.732-.018-47.467.122-71.199.022-3.775-1.2-7.354-1.058-11.093,2.578.989,5.299.274,7.953.684,4.158.642,8.386.824,12.581,1.237,1.781.175,2.587-.51,2.442-2.346-.346-4.366-.602-8.739-.981-13.102-.15-1.729-1.186-2.382-2.908-1.891-1.95.556-3.908,1.085-5.872,1.592-3.207.827-4.737.115-6.003-3.124-1.36-3.478-2.492-7.045-3.756-10.561-.467-1.298-.948-2.602-1.56-3.835-.766-1.542-.034-2.097,1.336-2.304,9.886-1.491,19.813-2.545,29.824-1.965,4.082.237,7.92,1.668,11.657,3.308,1.532.672,2.051,1.872,1.656,3.37-1.096,4.158-2.165,8.331-3.5,12.414-.809,2.475-2.373,3.044-5.014,2.372-1.572-.4-3.127-.869-4.701-1.261-1.759-.438-3.152-.017-3.433,1.981-.613,4.361-.463,8.741-.153,13.122.131,1.851,1.173,2.233,2.816,2.098,5.817-.477,11.638-.9,17.46-1.311,5.097-.36,10.198-.662,15.294-1.021,1.725-.122,2.68-1.114,2.702-2.844.04-3.009.058-6.019-.013-9.027-.041-1.738-1.008-2.469-2.763-2.094-1.584.338-3.18.623-4.769.939-2.313.459-3.915-.358-4.525-2.539-1.356-4.846-2.623-9.716-3.91-14.581-.424-1.604.119-2.364,1.886-2.554,6.603-.71,13.184-1.62,19.788-2.324,4.419-.471,8.745.34,12.982,1.532,2.578.725,5.084,1.7,7.649,2.475,1.399.423,1.88,1.193,1.291,2.529-2.163,4.906-4.342,9.805-6.526,14.702-.522,1.17-1.426,1.731-2.728,1.594-2.658-.278-5.325-.485-7.971-.847-2.881-.395-3.849.35-4.045,3.27-.152,2.266-.341,4.53-.569,6.789-.161,1.602.493,2.186,2.089,2.105,4.54-.23,9.084-.371,13.626-.547-1.05,63.162-.243,126.33-.513,189.494-.015,3.47-.277,3.548-3.978,3.343-4.899-.271-9.645-1.037-14.085-3.229,2.112-.572,1.967-2.241,1.966-3.909-.013-34.804-.01-69.608-.01-104.412,0-6.072-.02-6.09-6.134-5.749-.162.009-.325.002-.488.009-12.088.485-24.173,1.055-36.265,1.387-2.502.069-3.108.783-3.1,3.208.092,29.437.077,58.874.084,88.311,0,1.623-.231,3.251-.253,4.855-.041,2.942-1.486,5.678-1.077,8.648-1.027.031-2.053.062-3.08.093-1.667-1.222-1.782-3.172-2.36-4.924-.562-1.7,1.009-4.176-1.097-5.071-1.59-.676-3.68-.213-5.546-.193-2.286.024-3.791,1.317-4.052,3.452-.688,5.625-1.685,11.231-1.513,16.936Z"/>
  <path class="cls-3" d="M203.775,271.08c-.409-2.97,1.036-5.707,1.077-8.648.022-1.604.253-3.232.253-4.855-.007-29.437.008-58.874-.084-88.311-.008-2.426.598-3.14,3.1-3.208,12.092-.332,24.178-.902,36.265-1.387.162-.007.326,0,.488-.009,6.114-.342,6.134-.323,6.134,5.749,0,34.804-.003,69.608.01,104.412,0,1.668.146,3.336-1.966,3.909-11.338-1.927-22.675-3.859-34.013-5.78-3.752-.636-7.509-1.248-11.264-1.871Z"/>
  <path class="cls-3" d="M72.367,241.39c0-11.057-.002-22.115.001-33.172,0-3.442.026-3.47,3.344-3.471,12.277-.004,24.554-.004,36.832,0,3.249.001,3.362.105,3.363,3.229.005,21.383-.033,42.766.052,64.149.01,2.416-.796,3.052-3.089,2.972-12.542-.437-24.988.5-37.327,2.837-2.721.515-3.169.103-3.171-2.64-.009-11.301-.004-22.603-.004-33.904Z"/>
  <path class="cls-2" d="M158.313,255.97c0,7.399.01,14.798-.005,22.197-.006,2.688-.385,2.849-3.008,2.528-5.376-.659-10.773-1.157-16.163-1.699-2.093-.21-4.194-.344-6.288-.545-1.349-.13-1.931-.84-1.928-2.268.035-14.635.029-29.27.011-43.906-.002-1.879.86-2.685,2.705-2.531,7.112.593,14.24.818,21.372.933,3.121.051,3.301.215,3.303,3.338.005,7.318.002,14.635.002,21.953ZM134.418,253.137c-1.461,0-2.052.635-1.926,1.811.154,1.437.968,2.423,2.447,2.468,1.106.034,1.841-.763,1.752-1.863-.116-1.447-1.096-2.22-2.273-2.417Z"/>
  <path class="cls-5" d="M122.248,138.514c0-3.168.066-6.339-.026-9.505-.054-1.851.63-2.638,2.52-2.698,10.064-.322,20.126-.688,30.186-1.117,1.97-.084,2.776.492,2.743,2.584-.102,6.335-.084,12.674-.008,19.01.022,1.886-.74,2.652-2.556,2.714-10.142.349-20.283.712-30.422,1.122-1.764.071-2.514-.528-2.462-2.362.093-3.247.026-6.499.026-9.748ZM138.809,137.928c-.023,0-.046,0-.068,0,0,2.913-.025,5.827.018,8.74.011.706-.416,1.858.865,1.842.937-.012.934-.96.937-1.693.023-5.908.041-11.816.046-17.724,0-.709.089-1.676-.939-1.626-.987.048-.847,1.021-.852,1.72-.018,2.913-.008,5.827-.008,8.74Z"/>
  <path class="cls-5" d="M105.974,138.527c0,3.169-.066,6.34.026,9.506.05,1.725-.47,2.46-2.327,2.514-10.064.292-20.127.654-30.186,1.1-2.07.092-2.66-.617-2.627-2.617.102-6.174.092-12.351.004-18.525-.026-1.857.551-2.612,2.471-2.673,9.903-.31,19.805-.677,29.703-1.126,2.162-.098,3.133.426,2.981,2.804-.192,2.994-.046,6.01-.046,9.017ZM88.001,138.746h-.06c0-2.756.008-5.513-.006-8.269-.003-.563-.013-1.247-.827-1.186-.637.048-.627.653-.626,1.13.013,5.432.034,10.864.063,16.295.003.559-.033,1.335.703,1.32.923-.018.74-.901.745-1.508.021-2.594.009-5.189.009-7.783Z"/>
  <path class="cls-5" d="M157.662,184.913c0,2.44-.048,4.882.018,7.32.041,1.528-.497,2.247-2.11,2.218-3.334-.061-6.671-.069-10.004.006-1.561.035-2.261-.582-2.258-2.119.01-5.043.009-10.086,0-15.13-.002-1.266.525-2.03,1.86-2.035,3.498-.011,6.995-.009,10.493-.003,1.441.002,2.015.802,2.005,2.177-.019,2.521-.005,5.043-.005,7.565Z"/>
  <path class="cls-5" d="M127.163,184.783c0-2.277.06-4.556-.019-6.83-.059-1.708.467-2.566,2.35-2.505,3.087.101,6.181.077,9.269.006,1.547-.036,2.281.576,2.28,2.112-.004,4.961.004,9.921-.003,14.882-.002,1.297-.688,1.939-1.975,1.941-3.253.004-6.506-.011-9.759.009-1.576.01-2.162-.82-2.148-2.295.023-2.439.006-4.879.006-7.319Z"/>
  <path class="cls-5" d="M186.127,281.372c-.172-5.704.825-11.311,1.513-16.936.261-2.135,1.766-3.428,4.052-3.452,1.867-.02,3.956-.483,5.546.193,2.106.895.536,3.371,1.097,5.071.579,1.752.693,3.702,2.36,4.924-.085,2.339-.036,4.631,1.065,6.812.755,1.495.209,2.367-1.552,2.142-3.509-.449-6.904.154-10.255,1.095-1.283.36-2.542.351-3.827.151Z"/>
  <path class="cls-5" d="M283.318,114.853c-3.789-.119-6.096-3.857-4.565-7.023.484-.999,1.296-1.078,2.245-.63.863.407,1.698,1.19,2.695.878,2.128-.665,2.424.235,2.034,2.041-.186.86-.191,1.765-.219,2.651-.051,1.621-.725,2.456-2.191,2.083Z"/>
  <path class="cls-4" d="M134.418,253.137c1.177.197,2.157.969,2.273,2.417.088,1.1-.647,1.897-1.752,1.863-1.478-.045-2.292-1.031-2.447-2.468-.126-1.176.464-1.81,1.926-1.811Z"/>
  <path class="cls-4" d="M138.809,137.928c0-2.913-.011-5.827.008-8.74.004-.7-.136-1.672.852-1.72,1.028-.05.939.917.939,1.626-.005,5.908-.023,11.816-.046,17.724-.003.732,0,1.681-.937,1.693-1.282.016-.855-1.135-.865-1.842-.044-2.913-.018-5.827-.018-8.74.023,0,.046,0,.068,0Z"/>
  <path class="cls-4" d="M88.001,138.746c0,2.594.012,5.189-.009,7.783-.005.607.178,1.489-.745,1.508-.736.015-.7-.761-.703-1.32-.028-5.432-.05-10.864-.063-16.295-.001-.477-.011-1.082.626-1.13.814-.061.824.623.827,1.186.014,2.756.006,5.513.006,8.269h.06Z"/>
</svg>