<?xml version="1.0" encoding="UTF-8"?>
<svg xmlns="http://www.w3.org/2000/svg" version="1.1" viewBox="0 0 595.3 841.9">
  <defs>
    <style>
      .cls-1 {
        fill: #fdfefe;
      }

      .cls-2 {
        fill: #a7c8eb;
      }

      .cls-3 {
        fill: #fefefe;
      }

      .cls-4 {
        fill: #86c593;
      }

      .cls-5 {
        fill: #f1f1f2;
      }

      .cls-6 {
        fill: #090b0e;
      }

      .cls-7 {
        fill: #5c637e;
      }

      .cls-8 {
        fill: #e8ebed;
      }

      .cls-9 {
        display: none;
      }

      .cls-10 {
        fill: #7aacdd;
      }

      .cls-11 {
        fill: #a7b1c8;
      }

      .cls-12 {
        fill: #aab5cc;
      }

      .cls-13 {
        fill: #5d6580;
      }
    </style>
  </defs>
  <!-- Generator: Adobe Illustrator 28.6.0, SVG Export Plug-In . SVG Version: 1.2.0 Build 709)  -->
  <g>
    <g id="Capa_1">
      <g class="cls-9">
        <path class="cls-4" d="M281.3,233.3c88.9-.6,185.1,65.8,185,183.1,0,101-83.9,184.5-185.7,183.8-97.7-.7-184.8-75.9-185.1-187.4-.2-101.8,90-180.6,185.8-179.4ZM388.4,377.8c0-1.9-.8-3.6-2.1-4.9-5.7-6.1-11.4-12.1-17.1-18.2-3.2-3.4-6.2-2.9-9.5,0-21.3,19.4-42.5,38.9-62.5,59.6-9.1,9.3-19,17.7-28.6,26.4-4.8,4.4-6.7,4.1-11.5-.2-3.9-3.6-7.9-7.1-11.8-10.7-10.5-9.9-20.7-20.2-30.3-31.1-2.8-3.2-5.3-3.5-8.9-.7-6.6,5.2-12.2,11.2-17.6,17.6-2.6,3.1-2.8,5.3,0,8.5,21.3,25.1,44.1,48.9,67.3,72.3,3.1,3.1,5.5,2.7,8.5,0,8-7.5,16.1-14.9,24.2-22.4,32.3-30,64.6-60.1,96.9-90.1,1.8-1.6,3.1-3.4,3.1-6Z"/>
        <path class="cls-3" d="M388.4,377.8c0,2.5-1.4,4.3-3.1,6-32.3,30-64.6,60.1-96.9,90.1-8,7.5-16.2,14.8-24.2,22.4-3,2.8-5.4,3.2-8.5,0-23.2-23.4-46-47.2-67.3-72.3-2.7-3.2-2.6-5.4,0-8.5,5.4-6.4,11-12.4,17.6-17.6,3.6-2.8,6.1-2.5,8.9.7,9.6,10.9,19.8,21.2,30.3,31.1,3.9,3.7,7.9,7.2,11.8,10.7,4.8,4.4,6.7,4.6,11.5.2,9.6-8.7,19.5-17.1,28.6-26.4,20.1-20.7,41.2-40.2,62.5-59.6,3.3-3,6.3-3.5,9.5,0,5.7,6.1,11.4,12.1,17.1,18.2,1.3,1.4,2.1,3,2.1,4.9Z"/>
      </g>
      <g>
        <path class="cls-8" d="M471.2,606.9c.3-1.5,1.2-2.4,2.7-2.7.5,2.3-.4,3.2-2.7,2.7Z"/>
        <path class="cls-10" d="M144.7,543.9c-8.7-9-16.3-18.9-23-29.6-13.1-21.1-21.7-43.9-25.8-68.5-1.5-9.3-2.3-18.6-2.4-28-.1-7.4.6-14.9.9-22.4,0-.4.4-.8.5-1.2,4.2-.7,8-1.9,9.7-6.5.8-2.2,2.1-4.2,3.1-6.4,2.8-6.5,6.9-12,12-16.9,6-5.8,12.8-9.9,21.3-10.2,2.1,0,4.3.2,6.3-.9,2.4-1.3,1.5-3.9,2.1-5.9,1.9-6.2,6-10.6,10.8-14.6,2.8-2.4,6.4-3.7,8.8-6.6.9.2,1.6-.3,2.3-.6,6.1-2.4,12-5.5,18.5-6.7,5.1-1,7.1.2,8.4,5.3,1.3,5,2.4,10.1,4.2,15,1.2,3.1,3.4,4.4,6.6,4,2.8-.3,3.6-2.4,4.2-4.7,3.8-14.3,8.1-28.4,13-42.3.3-.7.2-1.6,1.1-2,1.1.9,1.2,2.3,1.5,3.4,2.5,8.6,4.3,17.3,6.1,26.1,1,5.1,1.6,10.3,4.4,14.9,1,1.7,2.3,3.1,4.5,2.9,2.2-.2,2.9-1.9,3.6-3.6,2.6-6.5,5.1-13,7.7-19.6,1.3-3.2,2.4-3.5,5.3-1.5,2.2,1.6,4.3,3.4,6.5,4.9,6.3,4.3,10.8,3.8,16.1-1.6,3.7-3.8,7.2-7.7,10.8-11.5,4.2-4.5,7.2-4.3,10.6.8,2.1,3.1,4.2,6.2,6.1,9.4,4.9,8.2,8.8,9,16.8,2.9,4.4-3.4,8.7-6.8,13.6-9.4,3.7-1.9,7.3-2,11,.4,3,1.9,5.3,4.4,7.7,6.8,8.3,8.2,5,7.7,16.1,5.1.3,0,.5,0,.8-.1,6-1.2,7.7-.3,9.6,5.7,1.4,4.6,3.2,8.9,6.4,12.6,2.7,3.1,4.3,2.9,5.9-1,2-4.9,4.2-9.7,6.3-14.6.4-.8.7-1.8,1.8-1.9,1.2,0,1.5,1.1,1.9,2,.5,1.5,1.2,2.9,1.6,4.4,3.3,11,5.8,22.2,8.6,33.3.9,3.8,2.4,7.3,4.6,10.4,1.6,2.2,2.8,2.2,4.3-.1,1.8-2.7,3-5.7,3.9-8.7,1.5-5,2.9-10,4.4-15,.6-1.9,1.6-2.7,3.6-1.8,2.6,1.2,5.4,2,8.1,3.1,1.8.8,1.9,0,1.8-1.5-.1-2.2-1.8-3.8-1.9-6,1-.3,1.7-1.5,2.9-1.1,6.9,16.5,11.5,33.6,13.5,51.4,1.5,13.5,1.2,27.1-.2,40.7-1.7,15.6-5.2,30.7-10.8,45.3-5.2,13.7-11.7,26.7-20.2,38.6-5.3-3.8-10.9-3.4-16.9-1.9-5.9,1.5-12,2.2-18.1,2.3-23.1.4-46.1-.3-69.2.5-19.7.7-39.4-.4-59.1,0-18.4.4-36.8-.2-55.1.5-7.1.3-14.2.2-21.3-.4-6.9-.5-13.8-.2-20.8-.5-10.7-.3-21.4-1-32.1-.8-2.6,0-4.6.7-5.8,3.1-1.2,2.4,0,4.4,1.5,6.3,3,4.2,6.4,8.1,8.8,12.7.3.5.9,1,0,1.6ZM182.2,492.7c.5,1.9.8,3.9,1.4,5.8,3.1,9.5,9.8,15,19.5,16.1,9.4,1,17.4-2.1,22.6-10.7,2.6-4.3,3.7-9.2,4.8-14.1,2.7,3.3,6.3,3.7,10.2,3.6,33.7-.2,67.4-.3,101.2-.5.4,0,.7,0,1.1,0,2.8-.3,5.6.2,8.3-.5,1.3-.4,2-1,1.8-2.2-.7-3.8-.2-7.6-.6-11.4-.9-8.5-2.1-16.9-2.1-25.5,0-5.3,0-10.6,0-15.9,0-.9.3-1.8-.4-2.6.6-2.6-.1-5.2-.1-7.9,0-21.9,0-43.8,0-65.7q0-4.7-4.6-4.7c-68.8,0-137.6,0-206.4,0-.7,0-1.4,0-2.2,0-3.3.2-4.1,1-4.1,4.4,0,9,0,18.1,0,27.1,0,3.8-.8,4.6-4.6,4.6-2.3,0-4.5-.1-6.8,0-2.5.2-3.3,1.6-3.2,4.4,0,2.4,1.4,3.2,3.5,3.1,6.3-.2,12.6-.5,18.9-.7,8.4-.3,16.7-.7,25.1-.9,2.3,0,3.5,1.5,3.3,4-.3,3.6-2,5.2-5.9,5.3-4.6,0-9.3,0-13.7,1.3-9.9,2.7-19.9,3.9-30.2,3.3-2.8-.2-3.7,1.2-3.7,4.7,0,3.5.5,4,3.6,4,10.5,0,20.9,0,31.4,0,1.3,0,2.7-.1,3.2,1.3.6,1.5.5,3.1-.6,4.4-.9,1.2-2.3,1.3-3.7,1.3-4.8,0-9.6,0-14.3,0-2.1,0-2.9.6-2.9,2.8,0,10.8,0,21.5,0,32.3,0,2.2.8,2.8,2.9,2.8,4,0,7.9-.3,11.9.2,3.3,2.2,6.7,4.1,9.7,6.8-.3,5.3-.6,10.5-1,15.8-.2,3.1.8,4.2,3.8,4.7,7.6,1.1,15.2,0,22.8-.8ZM413.5,490.1c7.9-.2,15.8-.4,23.8-.6,1.3,0,2.5,0,3.8-.2,1.8-.2,2.7-1,2.7-3,0-11.1,0-22.3,0-33.4,0-2.1-1.1-3.4-2.8-4.3-2-1-4.1-1.9-6.1-2.8-5.8-2.5-10.8-6.1-14.4-11.5-6.4-9.5-13-18.9-19.3-28.4-2.3-3.5-5.3-5.2-9.5-5.1-10.3.1-20.6,0-30.8,0-4.6,0-5.4.8-5.4,5.4,0,26.8,0,53.7,0,80.5,0,.5,0,.9,0,1.4,0,1.8.8,2.8,2.6,3.2,2.4.5,4.8.6,7.3.3.2.8.3,1.6.5,2.4,1.5,9.9,6.4,17.2,16.1,19.9,9.4,2.7,18,.3,25.1-6.7,4.7-4.7,6.1-10.8,6.7-17.1Z"/>
        <path class="cls-2" d="M450.5,344.4c-1.2-.3-1.9.8-2.9,1.1-2.9-1.3-5.3-3.7-8.6-4.5-5.8-1.4-7-.7-8.4,5-1,4.1-2.2,8.1-3.3,12.1-.2.8-.4,1.4-1.3,1.5-.9.1-1.3-.5-1.6-1.2-.2-.5-.4-1-.5-1.5-2.3-8.4-4.6-16.8-6.5-25.4-.9-4.3-2-8.5-3.2-12.7-.9-3.2-3.6-5.1-6.3-5.2-2.9,0-4.7,1.5-6.1,4.9-1.6,4-3.3,7.9-4.9,11.8-.3.8-.6,1.8-1.7,1.9-1.2,0-1.4-1-1.8-1.7-1.1-1.9-2.1-3.8-3.3-5.6-2.3-3.6-5.5-5.7-10-5.2-2.1.2-4.3.5-6.4.9-3.6.6-6.7.1-9.3-2.9-2.8-3.2-6-6-9.7-8.3-5.8-3.6-11.4-4-17.2,0-4.4,3-8.8,6-13.3,9-3.3,2.2-5.1,2-7.8-1-3.5-3.8-5.9-8.3-8.8-12.5-3.5-5.1-7.7-6.2-13.1-3.3-2.5,1.3-4.4,3.4-6.4,5.4-2.7,2.8-5.1,5.9-7.8,8.7-3.5,3.6-6.2,3.8-10.3.9-3.6-2.6-7.1-5.3-10.7-7.9-3.7-2.6-5.8-2.1-8.2,1.8-2.3,3.8-4,8-5.4,12.2-.4,1.1-.5,2.8-1.8,2.8-1.5,0-1.2-1.7-1.5-2.8-2.3-11.3-4.7-22.6-6.6-34-.5-3.2-1-6.5-2.8-9.4-1.9-3-4.7-3.3-7.2-.8-2.3,2.3-3.9,5.1-4.7,8.2-2.5,8.8-4.9,17.5-7.4,26.3-1.4,5.1-2.7,10.2-4.1,15.3-.2.9-.4,2.2-1.7,2.2-1.1,0-1.1-1.3-1.4-2.1-.8-2.4-1.5-4.9-2.5-7.2-2.3-5.6-5.9-8-11.8-7.5-8.4.6-15.9,3.8-22.1,9.7-.8.8-1.6,1.5-1.4,2.8-2.4,2.9-6,4.3-8.8,6.6-4.8,4-8.9,8.3-10.8,14.6-.6,2,.3,4.6-2.1,5.9-2,1.1-4.2.8-6.3.9-8.6.2-15.3,4.3-21.3,10.2-5.1,4.9-9.2,10.4-12,16.9-.9,2.2-2.3,4.2-3.1,6.4-1.7,4.6-5.5,5.8-9.7,6.5.4-6.5,1.8-12.8,3.2-19.1,4.8-21.3,13-41.1,24.8-59.4,15.8-24.4,36.1-44.2,60.9-59,18.8-11.2,38.9-18.9,60.3-23,9.3-1.8,18.6-2.7,28.1-3.1,8.8-.4,17.6,0,26.4.8,12.3,1.1,24.3,3.8,36.1,7.5,21,6.5,40.1,16.6,57.6,29.9,15.9,12.1,29.4,26.5,40.6,43.1,6.9,10.2,12.6,21,17.5,32.3Z"/>
        <path class="cls-2" d="M144.7,543.9c.8-.6.2-1,0-1.6-2.5-4.6-5.8-8.5-8.8-12.7-1.4-1.9-2.6-3.8-1.5-6.3,1.2-2.4,3.2-3,5.8-3.1,10.7-.3,21.4.5,32.1.8,6.9.2,13.9,0,20.8.5,7.1.6,14.2.7,21.3.4,18.4-.8,36.8-.2,55.1-.5,19.7-.4,39.4.7,59.1,0,23.1-.8,46.1,0,69.2-.5,6.1-.1,12.2-.9,18.1-2.3,6-1.5,11.6-1.9,16.9,1.9-3.6,5.8-7.8,11.1-12.2,16.3-11.4,13.4-24.4,25-39.1,34.6-21.7,14.1-45.2,23.6-70.7,27.9-8.8,1.4-17.6,2.2-26.5,2.5-16.7.5-33.2-1.4-49.4-5.2-11.7-2.7-22.9-6.9-33.8-11.9-16-7.4-30.6-16.9-44-28.5-3.9-3.4-7.6-6.9-11.4-10.4-.4-.4-.7-1.1-1-1.6Z"/>
        <path class="cls-1" d="M147,466.3c-4-.5-7.9-.2-11.9-.2-2.1,0-2.9-.6-2.9-2.8,0-10.8,0-21.5,0-32.3,0-2.2.8-2.9,2.9-2.8,4.8,0,9.6,0,14.3,0,1.4,0,2.8,0,3.7-1.3,1-1.3,1.1-2.9.6-4.4-.5-1.5-2-1.3-3.2-1.3-10.5,0-20.9,0-31.4,0-3.1,0-3.6-.5-3.6-4,0-3.5.9-4.9,3.7-4.7,10.3.6,20.3-.6,30.2-3.3,4.4-1.2,9.1-1.2,13.7-1.3,3.9,0,5.6-1.7,5.9-5.3.2-2.5-1-4-3.3-4-8.4.3-16.7.6-25.1.9-6.3.2-12.6.5-18.9.7-2.1,0-3.4-.7-3.5-3.1,0-2.8.8-4.2,3.2-4.4,2.2-.2,4.5,0,6.8,0,3.8,0,4.6-.8,4.6-4.6,0-9,0-18.1,0-27.1,0-3.4.7-4.2,4.1-4.4.7,0,1.4,0,2.2,0,68.8,0,137.6,0,206.4,0q4.6,0,4.6,4.7c0,21.9,0,43.8,0,65.7,0,2.6.8,5.2.1,7.9-.7,9.2-.6,18.4-.6,27.6,0,2.3-.7,3.2-3.1,3.2-21.5.1-42.9,0-64.4.3-42.1.4-84.3.1-126.4.2-2.9,0-5.8-.3-8.6.3Z"/>
        <path class="cls-1" d="M365.2,491.6c-2.4.3-4.8.2-7.3-.3-1.9-.3-2.7-1.3-2.6-3.2,0-.5,0-.9,0-1.4,0-26.8,0-53.7,0-80.5,0-4.6.7-5.4,5.4-5.4,10.3,0,20.6,0,30.8,0,4.2,0,7.2,1.6,9.5,5.1,6.4,9.5,12.9,18.9,19.3,28.4,3.6,5.4,8.6,9,14.4,11.5,2.1.9,4.1,1.8,6.1,2.8,1.7.9,2.8,2.2,2.8,4.3,0,11.1,0,22.3,0,33.4,0,2-.9,2.9-2.7,3-1.3.1-2.5.1-3.8.2-7.9.2-15.8.4-23.8.6,0-.5-.2-1.1-.2-1.6-1.2-9.5-6.8-15.4-15.2-18.8-8.7-3.5-16.8-2.2-24,3.8-5.6,4.7-7.9,11.1-8.8,18.2ZM391.4,440.4c5.9,0,11.7,0,17.6,0,1.1,0,2.4.2,3.1-1.1.5-1.1,0-2.1-.7-3-4.4-6.6-8.8-13.1-13.1-19.8-1-1.5-2.2-2-3.8-2-6.8,0-13.7,0-20.5,0-2.4,0-3.5.9-3.4,3.4,0,6.4,0,12.8,0,19.2,0,2.4.9,3.5,3.4,3.4,5.9,0,11.7,0,17.6,0Z"/>
        <path class="cls-1" d="M169.1,326.2c-.2-1.3.6-2,1.4-2.8,6.2-5.9,13.6-9.1,22.1-9.7,5.9-.4,9.5,2,11.8,7.5,1,2.3,1.7,4.8,2.5,7.2.3.8.3,2.1,1.4,2.1,1.3,0,1.4-1.3,1.7-2.2,1.4-5.1,2.7-10.2,4.1-15.3,2.4-8.8,4.9-17.5,7.4-26.3.9-3.1,2.4-5.9,4.7-8.2,2.5-2.5,5.3-2.2,7.2.8,1.8,2.9,2.2,6.1,2.8,9.4,1.9,11.4,4.2,22.7,6.6,34,.2,1.1,0,2.8,1.5,2.8,1.3,0,1.4-1.7,1.8-2.8,1.4-4.3,3-8.4,5.4-12.2,2.4-3.9,4.5-4.5,8.2-1.8,3.6,2.6,7.1,5.3,10.7,7.9,4.1,2.9,6.8,2.7,10.3-.9,2.7-2.8,5.1-5.9,7.8-8.7,1.9-2,3.9-4.1,6.4-5.4,5.4-2.9,9.6-1.8,13.1,3.3,2.9,4.2,5.3,8.7,8.8,12.5,2.7,3,4.4,3.2,7.8,1,4.5-2.9,8.9-5.9,13.3-9,5.8-4,11.4-3.6,17.2,0,3.6,2.3,6.9,5,9.7,8.3,2.6,3,5.7,3.5,9.3,2.9,2.1-.4,4.3-.7,6.4-.9,4.4-.5,7.6,1.6,10,5.2,1.2,1.8,2.2,3.7,3.3,5.6.4.8.7,1.8,1.8,1.7,1.1,0,1.4-1.1,1.7-1.9,1.7-3.9,3.3-7.9,4.9-11.8,1.4-3.4,3.2-4.9,6.1-4.9,2.7,0,5.3,2,6.3,5.2,1.2,4.2,2.3,8.4,3.2,12.7,1.9,8.5,4.2,17,6.5,25.4.1.5.3,1,.5,1.5.3.7.7,1.3,1.6,1.2.9,0,1.1-.8,1.3-1.5,1.1-4,2.2-8.1,3.3-12.1,1.5-5.7,2.7-6.4,8.4-5,3.2.8,5.6,3.2,8.6,4.5.1,2.2,1.7,3.8,1.9,6,0,1.5,0,2.3-1.8,1.5-2.7-1.1-5.4-2-8.1-3.1-2.1-.9-3.1-.1-3.6,1.8-1.5,5-2.9,10-4.4,15-.9,3.1-2.1,6-3.9,8.7-1.5,2.3-2.7,2.4-4.3.1-2.2-3.1-3.7-6.7-4.6-10.4-2.8-11.1-5.3-22.3-8.6-33.3-.4-1.5-1.1-2.9-1.6-4.4-.3-1-.6-2.1-1.9-2-1,0-1.4,1-1.8,1.9-2.1,4.8-4.2,9.7-6.3,14.6-1.6,3.9-3.2,4.1-5.9,1-3.2-3.7-4.9-8-6.4-12.6-1.9-6-3.6-6.9-9.6-5.7-.3,0-.5,0-.8.1-11.1,2.6-7.8,3.1-16.1-5.1-2.4-2.4-4.7-5-7.7-6.8-3.7-2.3-7.3-2.3-11-.4-4.9,2.6-9.2,6-13.6,9.4-8,6.1-11.9,5.4-16.8-2.9-1.9-3.2-4.1-6.3-6.1-9.4-3.4-5.1-6.4-5.3-10.6-.8-3.6,3.8-7.1,7.7-10.8,11.5-5.4,5.5-9.8,5.9-16.1,1.6-2.2-1.5-4.3-3.3-6.5-4.9-2.9-2-4-1.7-5.3,1.5-2.6,6.5-5.1,13-7.7,19.6-.7,1.7-1.4,3.5-3.6,3.6-2.2.2-3.5-1.2-4.5-2.9-2.7-4.6-3.3-9.8-4.4-14.9-1.8-8.8-3.6-17.5-6.1-26.1-.3-1.2-.5-2.5-1.5-3.4-.9.4-.9,1.3-1.1,2-4.9,13.9-9.1,28.1-13,42.3-.6,2.3-1.4,4.4-4.2,4.7-3.2.3-5.4-1-6.6-4-1.9-4.9-2.9-10-4.2-15-1.3-5.1-3.4-6.3-8.4-5.3-6.5,1.3-12.4,4.3-18.5,6.7-.7.3-1.5.8-2.3.6Z"/>
        <path class="cls-8" d="M343,492.9c-.4,0-.7,0-1.1,0-33.7.1-67.4.2-101.2.5-4,0-7.5-.4-10.2-3.6.6-4.5-.4-8.5-3.5-11.8-1.1-1.2-2.3-2.3-3.5-3.4,0-3,2.1-2.6,4-2.4,3.4.3,6.8.9,10.2.9,33.6.1,67.2.1,100.9.2,1.1,0,2.2.1,3.2.3,1.5.2,2,.8,1.9,2.6-.4,5.6-.5,11.3-.7,16.9Z"/>
        <path class="cls-12" d="M343,492.9c.2-5.6.3-11.3.7-16.9.1-1.7-.4-2.4-1.9-2.6-1.1-.2-2.1-.3-3.2-.3-33.6,0-67.2,0-100.9-.2-3.4,0-6.8-.6-10.2-.9-1.9-.2-3.9-.5-4,2.4-.9-.5-1.9-1-2.8-1.5-5.9-3.3-12-5.3-18.8-4.2-3.8.6-6.9,2.8-10.3,4.3-11.7,0-23.4,0-35,0-3-2.7-6.4-4.6-9.7-6.8,2.9-.6,5.8-.3,8.6-.3,42.1,0,84.3.2,126.4-.2,21.5-.2,42.9-.1,64.4-.3,2.4,0,3.1-.9,3.1-3.2,0-9.2-.1-18.4.6-27.6.6.8.4,1.8.4,2.6,0,5.3,0,10.6,0,15.9,0,8.6,1.1,17,2.1,25.5.4,3.8-.1,7.6.6,11.4.2,1.3-.5,1.9-1.8,2.2-2.8.8-5.6.3-8.3.5Z"/>
        <path class="cls-6" d="M365.2,491.6c.9-7.1,3.3-13.5,8.8-18.2,7.2-6,15.3-7.3,24-3.8,8.4,3.4,14.1,9.3,15.2,18.8,0,.5.2,1.1.2,1.6-.6,6.4-2,12.4-6.7,17.1-7.1,7-15.7,9.4-25.1,6.7-9.7-2.7-14.6-10-16.1-19.9-.1-.8-.3-1.6-.5-2.4ZM389.1,479.8c-6.6,0-11.9,5.4-11.9,12,0,6.9,5.6,12.5,12.5,12.4,6.7,0,11.9-5.4,11.9-12,0-6.8-5.6-12.4-12.5-12.4Z"/>
        <path class="cls-6" d="M191.7,473.2c3.4-1.5,6.5-3.7,10.3-4.3,6.8-1.1,13,.8,18.8,4.2.9.5,1.9,1,2.8,1.5,1.2,1.1,2.4,2.2,3.5,3.4,3.1,3.3,4.1,7.3,3.5,11.8-1.1,4.9-2.2,9.8-4.8,14.1-5.2,8.6-13.2,11.7-22.6,10.7-9.7-1-16.4-6.5-19.5-16.1-.6-1.9-1-3.9-1.4-5.8,0-.3.2-.5.2-.8-.3-7.4,2.6-13.3,8.4-17.7.3-.3.5-.7.8-1ZM217.9,492c0-6.7-5.4-12.2-12.1-12.2-6.7,0-12.1,5.6-12,12.5,0,6.8,5.5,12.1,12.2,12,6.7-.1,12-5.6,11.9-12.3Z"/>
        <path class="cls-1" d="M191.7,473.2c-.3.4-.5.8-.8,1-5.9,4.4-8.7,10.3-8.4,17.7,0,.3-.1.5-.2.8-7.6.8-15.1,1.9-22.8.8-3-.4-4-1.6-3.8-4.7.4-5.2.7-10.5,1-15.8,11.7,0,23.4,0,35,0Z"/>
        <path class="cls-10" d="M391.4,440.4c-5.9,0-11.7,0-17.6,0-2.4,0-3.4-1-3.4-3.4,0-6.4,0-12.8,0-19.2,0-2.5,1-3.4,3.4-3.4,6.8,0,13.7,0,20.5,0,1.7,0,2.9.5,3.8,2,4.3,6.6,8.7,13.2,13.1,19.8.6.9,1.2,1.9.7,3-.6,1.4-1.9,1.1-3.1,1.1-5.9,0-11.7,0-17.6,0Z"/>
        <path class="cls-1" d="M389.1,479.8c6.9,0,12.5,5.5,12.5,12.4,0,6.6-5.3,11.9-11.9,12-6.8,0-12.5-5.5-12.5-12.4,0-6.6,5.3-12,11.9-12Z"/>
        <path class="cls-1" d="M217.9,492c0,6.7-5.3,12.2-11.9,12.3-6.7.1-12.1-5.2-12.2-12,0-6.9,5.3-12.5,12-12.5,6.7,0,12,5.4,12.1,12.2Z"/>
      </g>
      <g class="cls-9">
        <path class="cls-2" d="M361.1,319.7c5.1.6,9.9,2.4,14.9,3.6,13.4,3.3,26.7,6.7,40.1,10,4.5,1.1,4.6,1.2,4.6,5.9,0,52.5,0,105.1,0,157.6,0,4.5.1,4.6,4.5,5.8,3,.8,5.9,1.7,8.9,2.5.8.2,1.9.1,1.9,1.1,0,1-1.2,1-1.9,1.2-15,4.6-29.8,9.6-44.7,14.6-23.2,7.8-46.1,16.7-69.4,24.4-10.8,3.6-21.6,7-32.4,10.6-3.4,1.1-6.6.1-9.7-.9-19.9-6.4-39.9-12.9-59.8-19.4-26.2-8.5-52.3-17.1-78.5-25.6-3.8-1.2-7.9-1.9-11.8-2.9-.7-.2-1.6-.1-1.5-1.2,0-.9.9-.8,1.5-.9,4.3-.8,8.6-1.7,12.9-2.4,2.3-.4,3.2-1.2,3.2-3.8,0-54.8,0-109.6,0-164.5,0-4.2,0-4.3,4.1-4.7,6.3-.6,12.6-1,18.9-1.4,8.4-.6,16.8-1.3,25.2-1.9,1.6-.1,2.1-.8,2.1-2.3,0-3.5-.1-7-.5-10.4-.2-2.1-1.7-2.8-3.5-2.3-2.3.7-2.9-.7-3.3-2.4-.2-1,0-2.1,0-3.2,0-1.5.8-2.3,2.2-2.4,2.4-.2,4.9-.3,7.3-.5,4.5-.2,8.9-.4,13.4-.5,2.5,0,3.4.9,3.5,3.3.2,6.9.2,6.9-6.7,6.9-4.3,0-5.2.9-5.5,5.2,0,1.5-.4,3.1-.5,4.6-.2,2.7.5,3.4,3.2,3.3,4.6-.3,9.2-.6,13.8-1,5.2-.4,10.5-.9,15.7-1.4,9.7-.8,19.4-1.6,29.1-2.4,3.2-.2,6.3-.4,9.5-.6-.1,3.7,1.1,7.3,1.1,11.1-.1,23.7,0,47.5-.1,71.2-.1,22.4.4,44.8-.4,67.2-.4,12.7,0,25.5-.1,38.3,0,1.6.4,3.1,1.9,3.3,1.8.2,3.9,1.3,5.5-.8,1.3.2,2.5.2,3.8-.2,3.4-.9,6.7-1.5,10.3-1.1,1.8.2,2.3-.6,1.6-2.1-1.1-2.2-1.2-4.5-1.1-6.8,1,0,2.1,0,3.1,0,3.8.6,7.5,1.2,11.3,1.9,11.3,1.9,22.7,3.9,34,5.8,4.4,2.2,9.2,3,14.1,3.2,3.7.2,4,.1,4-3.3.3-63.2-.5-126.3.5-189.5ZM165.9,472c0,11.3,0,22.6,0,33.9,0,2.7.5,3.2,3.2,2.6,12.3-2.3,24.8-3.3,37.3-2.8,2.3,0,3.1-.6,3.1-3,0-21.4,0-42.8,0-64.1,0-3.1-.1-3.2-3.4-3.2-12.3,0-24.6,0-36.8,0-3.3,0-3.3,0-3.3,3.5,0,11.1,0,22.1,0,33.2ZM251.8,486.6c0-7.3,0-14.6,0-22,0-3.1-.2-3.3-3.3-3.3-7.1-.1-14.3-.3-21.4-.9-1.8-.2-2.7.7-2.7,2.5,0,14.6,0,29.3,0,43.9,0,1.4.6,2.1,1.9,2.3,2.1.2,4.2.3,6.3.5,5.4.5,10.8,1,16.2,1.7,2.6.3,3,.2,3-2.5,0-7.4,0-14.8,0-22.2ZM215.7,369.1c0,3.2,0,6.5,0,9.7,0,1.8.7,2.4,2.5,2.4,10.1-.4,20.3-.8,30.4-1.1,1.8,0,2.6-.8,2.6-2.7,0-6.3,0-12.7,0-19,0-2.1-.8-2.7-2.7-2.6-10.1.4-20.1.8-30.2,1.1-1.9,0-2.6.8-2.5,2.7,0,3.2,0,6.3,0,9.5ZM199.5,369.1c0-3-.1-6,0-9,.2-2.4-.8-2.9-3-2.8-9.9.4-19.8.8-29.7,1.1-1.9,0-2.5.8-2.5,2.7,0,6.2,0,12.4,0,18.5,0,2,.6,2.7,2.6,2.6,10.1-.4,20.1-.8,30.2-1.1,1.9,0,2.4-.8,2.3-2.5,0-3.2,0-6.3,0-9.5ZM251.2,415.5c0-2.5,0-5,0-7.6,0-1.4-.6-2.2-2-2.2-3.5,0-7,0-10.5,0-1.3,0-1.9.8-1.9,2,0,5,0,10.1,0,15.1,0,1.5.7,2.2,2.3,2.1,3.3,0,6.7,0,10,0,1.6,0,2.2-.7,2.1-2.2,0-2.4,0-4.9,0-7.3ZM220.7,415.4c0,2.4,0,4.9,0,7.3,0,1.5.6,2.3,2.1,2.3,3.3,0,6.5,0,9.8,0,1.3,0,2-.6,2-1.9,0-5,0-9.9,0-14.9,0-1.5-.7-2.1-2.3-2.1-3.1,0-6.2,0-9.3,0-1.9,0-2.4.8-2.3,2.5,0,2.3,0,4.6,0,6.8ZM376.8,345.4c1.5.4,2.1-.5,2.2-2.1,0-.9,0-1.8.2-2.7.4-1.8,0-2.7-2-2-1,.3-1.8-.5-2.7-.9-.9-.4-1.8-.4-2.2.6-1.5,3.2.8,6.9,4.6,7Z"/>
        <path class="cls-11" d="M279.6,512c-1.5,2.1-3.7,1-5.5.8-1.5-.2-1.9-1.7-1.9-3.3,0-12.8-.3-25.5.1-38.3.8-22.4.2-44.8.4-67.2.1-23.7,0-47.5.1-71.2,0-3.8-1.2-7.4-1.1-11.1,2.6,1,5.3.3,8,.7,4.2.6,8.4.8,12.6,1.2,1.8.2,2.6-.5,2.4-2.3-.3-4.4-.6-8.7-1-13.1-.2-1.7-1.2-2.4-2.9-1.9-1.9.6-3.9,1.1-5.9,1.6-3.2.8-4.7.1-6-3.1-1.4-3.5-2.5-7-3.8-10.6-.5-1.3-.9-2.6-1.6-3.8-.8-1.5,0-2.1,1.3-2.3,9.9-1.5,19.8-2.5,29.8-2,4.1.2,7.9,1.7,11.7,3.3,1.5.7,2.1,1.9,1.7,3.4-1.1,4.2-2.2,8.3-3.5,12.4-.8,2.5-2.4,3-5,2.4-1.6-.4-3.1-.9-4.7-1.3-1.8-.4-3.2,0-3.4,2-.6,4.4-.5,8.7-.2,13.1.1,1.9,1.2,2.2,2.8,2.1,5.8-.5,11.6-.9,17.5-1.3,5.1-.4,10.2-.7,15.3-1,1.7-.1,2.7-1.1,2.7-2.8,0-3,0-6,0-9,0-1.7-1-2.5-2.8-2.1-1.6.3-3.2.6-4.8.9-2.3.5-3.9-.4-4.5-2.5-1.4-4.8-2.6-9.7-3.9-14.6-.4-1.6.1-2.4,1.9-2.6,6.6-.7,13.2-1.6,19.8-2.3,4.4-.5,8.7.3,13,1.5,2.6.7,5.1,1.7,7.6,2.5,1.4.4,1.9,1.2,1.3,2.5-2.2,4.9-4.3,9.8-6.5,14.7-.5,1.2-1.4,1.7-2.7,1.6-2.7-.3-5.3-.5-8-.8-2.9-.4-3.8.4-4,3.3-.2,2.3-.3,4.5-.6,6.8-.2,1.6.5,2.2,2.1,2.1,4.5-.2,9.1-.4,13.6-.5-1.1,63.2-.2,126.3-.5,189.5,0,3.5-.3,3.5-4,3.3-4.9-.3-9.6-1-14.1-3.2,2.1-.6,2-2.2,2-3.9,0-34.8,0-69.6,0-104.4s0-6.1-6.1-5.7c-.2,0-.3,0-.5,0-12.1.5-24.2,1.1-36.3,1.4-2.5,0-3.1.8-3.1,3.2,0,29.4,0,58.9,0,88.3,0,1.6-.2,3.3-.3,4.9,0,2.9-1.5,5.7-1.1,8.6-1,0-2.1,0-3.1,0-1.7-1.2-1.8-3.2-2.4-4.9-.6-1.7,1-4.2-1.1-5.1-1.6-.7-3.7-.2-5.5-.2-2.3,0-3.8,1.3-4.1,3.5-.7,5.6-1.7,11.2-1.5,16.9Z"/>
        <path class="cls-7" d="M297.3,501.7c-.4-3,1-5.7,1.1-8.6,0-1.6.3-3.2.3-4.9,0-29.4,0-58.9,0-88.3,0-2.4.6-3.1,3.1-3.2,12.1-.3,24.2-.9,36.3-1.4.2,0,.3,0,.5,0,6.1-.3,6.1-.3,6.1,5.7,0,34.8,0,69.6,0,104.4,0,1.7.1,3.3-2,3.9-11.3-1.9-22.7-3.9-34-5.8-3.8-.6-7.5-1.2-11.3-1.9Z"/>
        <path class="cls-7" d="M165.9,472c0-11.1,0-22.1,0-33.2,0-3.4,0-3.5,3.3-3.5,12.3,0,24.6,0,36.8,0,3.2,0,3.4.1,3.4,3.2,0,21.4,0,42.8,0,64.1,0,2.4-.8,3.1-3.1,3-12.5-.4-25,.5-37.3,2.8-2.7.5-3.2.1-3.2-2.6,0-11.3,0-22.6,0-33.9Z"/>
        <path class="cls-5" d="M251.8,486.6c0,7.4,0,14.8,0,22.2,0,2.7-.4,2.8-3,2.5-5.4-.7-10.8-1.2-16.2-1.7-2.1-.2-4.2-.3-6.3-.5-1.3-.1-1.9-.8-1.9-2.3,0-14.6,0-29.3,0-43.9,0-1.9.9-2.7,2.7-2.5,7.1.6,14.2.8,21.4.9,3.1,0,3.3.2,3.3,3.3,0,7.3,0,14.6,0,22ZM227.9,483.7c-1.5,0-2.1.6-1.9,1.8.2,1.4,1,2.4,2.4,2.5,1.1,0,1.8-.8,1.8-1.9-.1-1.4-1.1-2.2-2.3-2.4Z"/>
        <path class="cls-13" d="M215.7,369.1c0-3.2,0-6.3,0-9.5,0-1.9.6-2.6,2.5-2.7,10.1-.3,20.1-.7,30.2-1.1,2,0,2.8.5,2.7,2.6-.1,6.3,0,12.7,0,19,0,1.9-.7,2.7-2.6,2.7-10.1.3-20.3.7-30.4,1.1-1.8,0-2.5-.5-2.5-2.4,0-3.2,0-6.5,0-9.7ZM232.3,368.5s0,0,0,0c0,2.9,0,5.8,0,8.7,0,.7-.4,1.9.9,1.8.9,0,.9-1,.9-1.7,0-5.9,0-11.8,0-17.7,0-.7,0-1.7-.9-1.6-1,0-.8,1-.9,1.7,0,2.9,0,5.8,0,8.7Z"/>
        <path class="cls-13" d="M199.5,369.1c0,3.2,0,6.3,0,9.5,0,1.7-.5,2.5-2.3,2.5-10.1.3-20.1.7-30.2,1.1-2.1,0-2.7-.6-2.6-2.6.1-6.2,0-12.4,0-18.5,0-1.9.6-2.6,2.5-2.7,9.9-.3,19.8-.7,29.7-1.1,2.2,0,3.1.4,3,2.8-.2,3,0,6,0,9ZM181.5,369.3h0c0-2.8,0-5.5,0-8.3,0-.6,0-1.2-.8-1.2-.6,0-.6.7-.6,1.1,0,5.4,0,10.9,0,16.3,0,.6,0,1.3.7,1.3.9,0,.7-.9.7-1.5,0-2.6,0-5.2,0-7.8Z"/>
        <path class="cls-13" d="M251.2,415.5c0,2.4,0,4.9,0,7.3,0,1.5-.5,2.2-2.1,2.2-3.3,0-6.7,0-10,0-1.6,0-2.3-.6-2.3-2.1,0-5,0-10.1,0-15.1,0-1.3.5-2,1.9-2,3.5,0,7,0,10.5,0,1.4,0,2,.8,2,2.2,0,2.5,0,5,0,7.6Z"/>
        <path class="cls-13" d="M220.7,415.4c0-2.3,0-4.6,0-6.8,0-1.7.5-2.6,2.3-2.5,3.1.1,6.2,0,9.3,0,1.5,0,2.3.6,2.3,2.1,0,5,0,9.9,0,14.9,0,1.3-.7,1.9-2,1.9-3.3,0-6.5,0-9.8,0-1.6,0-2.2-.8-2.1-2.3,0-2.4,0-4.9,0-7.3Z"/>
        <path class="cls-13" d="M279.6,512c-.2-5.7.8-11.3,1.5-16.9.3-2.1,1.8-3.4,4.1-3.5,1.9,0,4-.5,5.5.2,2.1.9.5,3.4,1.1,5.1.6,1.8.7,3.7,2.4,4.9,0,2.3,0,4.6,1.1,6.8.8,1.5.2,2.4-1.6,2.1-3.5-.4-6.9.2-10.3,1.1-1.3.4-2.5.4-3.8.2Z"/>
        <path class="cls-13" d="M376.8,345.4c-3.8-.1-6.1-3.9-4.6-7,.5-1,1.3-1.1,2.2-.6.9.4,1.7,1.2,2.7.9,2.1-.7,2.4.2,2,2-.2.9-.2,1.8-.2,2.7,0,1.6-.7,2.5-2.2,2.1Z"/>
        <path class="cls-11" d="M227.9,483.7c1.2.2,2.2,1,2.3,2.4,0,1.1-.6,1.9-1.8,1.9-1.5,0-2.3-1-2.4-2.5-.1-1.2.5-1.8,1.9-1.8Z"/>
        <path class="cls-11" d="M232.3,368.5c0-2.9,0-5.8,0-8.7,0-.7-.1-1.7.9-1.7,1,0,.9.9.9,1.6,0,5.9,0,11.8,0,17.7,0,.7,0,1.7-.9,1.7-1.3,0-.9-1.1-.9-1.8,0-2.9,0-5.8,0-8.7,0,0,0,0,0,0Z"/>
        <path class="cls-11" d="M181.5,369.3c0,2.6,0,5.2,0,7.8,0,.6.2,1.5-.7,1.5-.7,0-.7-.8-.7-1.3,0-5.4,0-10.9,0-16.3,0-.5,0-1.1.6-1.1.8,0,.8.6.8,1.2,0,2.8,0,5.5,0,8.3h0Z"/>
      </g>
    </g>
  </g>
</svg>